<svg width="24" height="24" viewBox="0 0 24 24" fill="none" xmlns="http://www.w3.org/2000/svg">
<path d="M17.491 5.48536C17.2268 5.49159 16.9757 5.60219 16.7928 5.79297L11.9998 10.5859L7.20684 5.79297C7.11354 5.69706 7.00194 5.62085 6.87864 5.56885C6.75535 5.51685 6.62288 5.49012 6.48907 5.49024C6.29022 5.49049 6.09596 5.55 5.9311 5.66119C5.76624 5.77238 5.63827 5.93019 5.56353 6.11446C5.48879 6.29873 5.47069 6.5011 5.51152 6.69571C5.55236 6.89032 5.65028 7.06835 5.79278 7.20704L10.5858 12L5.79278 16.793C5.69681 16.8851 5.62018 16.9955 5.5674 17.1176C5.51461 17.2397 5.48673 17.3712 5.48537 17.5042C5.48402 17.6373 5.50922 17.7692 5.55951 17.8924C5.6098 18.0156 5.68416 18.1275 5.77824 18.2216C5.87232 18.3157 5.98423 18.39 6.10741 18.4403C6.23058 18.4906 6.36256 18.5158 6.4956 18.5144C6.62864 18.5131 6.76007 18.4852 6.8822 18.4324C7.00433 18.3796 7.1147 18.303 7.20684 18.207L11.9998 13.4141L16.7928 18.207C16.8849 18.303 16.9953 18.3796 17.1174 18.4324C17.2396 18.4852 17.371 18.5131 17.504 18.5145C17.6371 18.5158 17.769 18.4906 17.8922 18.4403C18.0154 18.39 18.1273 18.3157 18.2214 18.2216C18.3155 18.1275 18.3898 18.0156 18.4401 17.8924C18.4904 17.7692 18.5156 17.6373 18.5143 17.5042C18.5129 17.3712 18.485 17.2397 18.4322 17.1176C18.3794 16.9955 18.3028 16.8851 18.2068 16.793L13.4139 12L18.2068 7.20704C18.3524 7.0675 18.4523 6.88725 18.4936 6.68992C18.5349 6.49258 18.5155 6.28738 18.4381 6.10123C18.3607 5.91508 18.2289 5.75666 18.0599 5.64675C17.8909 5.53685 17.6926 5.48059 17.491 5.48536Z" fill="#637394"/>
</svg>
