<svg width="24" height="24" viewBox="0 0 24 24" fill="none" xmlns="http://www.w3.org/2000/svg">
<path d="M20.9803 1.99024C20.7205 1.99798 20.4739 2.10656 20.2928 2.29298L13.9998 8.58595V4.00001C14.0016 3.8663 13.9766 3.73359 13.9263 3.60971C13.8759 3.48584 13.8012 3.37332 13.7066 3.27881C13.612 3.1843 13.4995 3.10973 13.3755 3.05949C13.2516 3.00925 13.1189 2.98438 12.9852 2.98634C12.7201 2.99022 12.4675 3.09917 12.2827 3.28924C12.0979 3.47931 11.9962 3.73496 11.9998 4.00001V11C11.9998 11.2652 12.1052 11.5196 12.2927 11.7071C12.4803 11.8946 12.7346 12 12.9998 12H19.9998C20.1323 12.0019 20.2639 11.9774 20.3869 11.928C20.5098 11.8786 20.6217 11.8052 20.7161 11.7122C20.8105 11.6191 20.8854 11.5083 20.9366 11.386C20.9877 11.2637 21.0141 11.1325 21.0141 11C21.0141 10.8675 20.9877 10.7363 20.9366 10.614C20.8854 10.4918 20.8105 10.3809 20.7161 10.2878C20.6217 10.1948 20.5098 10.1214 20.3869 10.072C20.2639 10.0226 20.1323 9.99813 19.9998 10H15.4139L21.7068 3.70704C21.8513 3.56658 21.95 3.38574 21.99 3.18822C22.03 2.9907 22.0093 2.78571 21.9308 2.60013C21.8522 2.41454 21.7195 2.25701 21.5499 2.14818C21.3802 2.03935 21.1817 1.9843 20.9803 1.99024ZM3.49981 12.5C3.3673 12.4981 3.23573 12.5226 3.11277 12.572C2.9898 12.6214 2.87788 12.6948 2.78351 12.7878C2.68914 12.8809 2.6142 12.9918 2.56305 13.114C2.51191 13.2363 2.48557 13.3675 2.48557 13.5C2.48557 13.6325 2.51191 13.7637 2.56305 13.886C2.6142 14.0083 2.68914 14.1191 2.78351 14.2122C2.87788 14.3052 2.9898 14.3786 3.11277 14.428C3.23573 14.4774 3.3673 14.5019 3.49981 14.5H8.08575L2.29278 20.293C2.1968 20.3851 2.12018 20.4955 2.0674 20.6176C2.01461 20.7397 1.98673 20.8712 1.98537 21.0042C1.98402 21.1373 2.00923 21.2692 2.05951 21.3924C2.1098 21.5156 2.18417 21.6275 2.27824 21.7216C2.37232 21.8157 2.48423 21.89 2.6074 21.9403C2.73058 21.9906 2.86255 22.0158 2.9956 22.0144C3.12864 22.0131 3.26007 21.9852 3.3822 21.9324C3.50433 21.8796 3.61469 21.803 3.70684 21.707L9.49981 15.9141V20.5C9.49794 20.6325 9.52242 20.7641 9.57183 20.8871C9.62124 21.01 9.69461 21.1219 9.78765 21.2163C9.88069 21.3107 9.99157 21.3856 10.1138 21.4368C10.2361 21.4879 10.3673 21.5142 10.4998 21.5142C10.6323 21.5142 10.7635 21.4879 10.8858 21.4368C11.0081 21.3856 11.1189 21.3107 11.212 21.2163C11.305 21.1219 11.3784 21.01 11.4278 20.8871C11.4772 20.7641 11.5017 20.6325 11.4998 20.5V13.5C11.4998 13.2348 11.3944 12.9805 11.2069 12.7929C11.0194 12.6054 10.765 12.5 10.4998 12.5H3.49981Z" fill="#637394"/>
</svg>
