<svg width="40" height="40" viewBox="0 0 40 40" fill="none" xmlns="http://www.w3.org/2000/svg">
<path d="M5.33334 6.66666C3.86001 6.66666 2.66667 7.85999 2.66667 9.33332V14.7318H6.69532C7.79532 14.7318 8.21615 15.763 8.21615 15.763L9.15105 20.513C8.04438 16.9477 3.77867 15.2189 2.66667 14.8229V30.6667C2.66667 32.14 3.86001 33.3333 5.33334 33.3333H34.6667C36.14 33.3333 37.3333 32.14 37.3333 30.6667V9.33332C37.3333 7.85999 36.14 6.66666 34.6667 6.66666H5.33334ZM24.4922 14.4948C25.7802 14.4948 27.0964 15.0104 27.0964 15.0104L26.6458 17.3229C26.6458 17.3229 25.6188 16.6484 24.7188 16.6484C23.3374 16.6484 22.8542 17.0991 22.8542 17.7057C22.8542 18.8937 26.7109 19.086 26.7109 21.75C26.7096 23.9633 23.9451 25.5052 21.9557 25.5052C19.9637 25.5052 18.9349 24.8984 18.9349 24.8984L19.4167 22.6797C19.4167 22.6797 20.4779 23.2891 22.0859 23.2891C23.6913 23.2891 23.9141 22.6148 23.9141 22.3255C23.9141 20.6255 20.0625 21.0788 20.0625 17.7708C20.0625 15.9415 21.5709 14.4948 24.4922 14.4948ZM12.0287 14.7057H15.0026L10.7734 25.1771H7.71094L5.48178 16.6979C5.48178 16.6979 7.83065 17.8875 9.27865 21.1328C9.34132 21.5275 9.48698 22.1614 9.48698 22.1614L12.0287 14.7057ZM16.099 14.7057H18.9115L17.2318 25.1771H14.4531L16.099 14.7057ZM31.1979 14.7057H34.1198L36.2708 25.1771H33.7422L33.4427 23.6849H29.9661L29.3958 25.1771H26.6354L31.1979 14.7057ZM32.2474 17.7266L30.737 21.6823H33.0391L32.2474 17.7266Z" fill="#637394"/>
</svg>
